<svg width="914" height="400" viewBox="0 0 914 400" fill="none" xmlns="http://www.w3.org/2000/svg"><style>#CL0 {fill: #0069DA;}#CL1 {fill: #24C2FF;}#CL2 {fill: #333;}#CL3 {fill: #86DA2F;}#CL4 {fill: #FF4649;}#CL5 {fill: #FFCB12;}@media (prefers-color-scheme: dark) {#CL0 {fill: #0069DA;}#CL1 {fill: #24C2FF;}#CL2 {fill: #CCC;}#CL3 {fill: #86DA2F;}#CL4 {fill: #FF4649;}#CL5 {fill: #FFCB12;}}</style>
<path d="M418.788 212.296L417.432 208.182H408.395L407.039 212.296H402.197L410.073 189.443H415.625L423.565 212.296H418.788ZM409.815 203.938H416.012L412.913 194.601L409.815 203.938Z" id="CL2"/>
<path d="M425.631 212.296V188.464H429.827V212.296H425.631Z" id="CL2"/>
<path d="M451.453 195.515C453.325 195.515 454.745 196.102 455.843 197.343C456.94 198.583 457.521 200.216 457.521 202.24V212.295H453.389V202.501C453.389 201.521 453.131 200.738 452.679 200.216C452.227 199.693 451.517 199.432 450.678 199.432C449.71 199.432 449 199.759 448.483 200.411C447.967 201.064 447.709 201.978 447.709 203.154V212.295H443.577V202.501C443.577 201.521 443.319 200.738 442.867 200.216C442.415 199.693 441.705 199.432 440.866 199.432C439.962 199.432 439.187 199.759 438.606 200.411C438.09 201.064 437.832 201.978 437.832 203.154V212.295H433.7V195.972H437.832V197.669C438.8 196.233 440.285 195.449 442.351 195.449C444.352 195.449 445.772 196.233 446.74 197.8C447.709 196.298 449.322 195.515 451.453 195.515Z" id="CL2"/>
<path d="M473.337 195.972H477.468V212.295H473.337V210.336C472.11 211.903 470.303 212.752 468.043 212.752C465.913 212.752 464.041 211.903 462.491 210.271C460.942 208.573 460.167 206.549 460.167 204.133C460.167 201.717 460.942 199.693 462.491 197.996C464.041 196.298 465.913 195.449 468.043 195.449C470.303 195.449 472.046 196.233 473.337 197.865V195.972ZM465.655 207.463C466.494 208.312 467.527 208.769 468.818 208.769C470.109 208.769 471.206 208.377 472.046 207.463C472.885 206.614 473.337 205.504 473.337 204.133C473.337 202.762 472.885 201.652 472.046 200.868C471.206 200.02 470.109 199.563 468.818 199.563C467.527 199.563 466.494 200.02 465.655 200.868C464.815 201.717 464.428 202.827 464.428 204.133C464.428 205.439 464.815 206.614 465.655 207.463Z" id="CL2"/>
<path d="M485.925 207.986H494.511V212.296H481.471V189.443H485.925V207.986Z" id="CL2"/>
<path d="M498.965 194.014C498.255 194.014 497.674 193.752 497.157 193.295C496.641 192.773 496.383 192.185 496.383 191.467C496.383 190.749 496.641 190.161 497.157 189.639C497.674 189.117 498.255 188.855 498.965 188.855C499.675 188.855 500.256 189.117 500.773 189.639C501.289 190.161 501.547 190.749 501.547 191.467C501.547 192.185 501.289 192.773 500.773 193.295C500.256 193.752 499.675 194.014 498.965 194.014ZM496.899 212.295V195.972H501.095V212.295H496.899Z" id="CL2"/>
<path d="M513.812 195.515C515.555 195.515 517.04 196.102 518.202 197.343C519.364 198.518 519.945 200.216 519.945 202.305V212.295H515.814V202.762C515.814 201.652 515.491 200.869 514.91 200.281C514.329 199.693 513.554 199.367 512.586 199.367C511.488 199.367 510.649 199.693 510.004 200.412C509.358 201.13 509.035 202.109 509.035 203.48V212.295H504.904V195.972H509.035V197.8C510.068 196.298 511.618 195.515 513.812 195.515Z" id="CL2"/>
<path d="M534.147 195.973H538.344V212.296H534.147V210.468C533.115 211.969 531.565 212.753 529.37 212.753C527.627 212.753 526.143 212.165 524.981 210.925C523.819 209.749 523.302 208.052 523.302 205.962V195.973H527.498V205.44C527.498 206.55 527.757 207.399 528.338 207.986C528.919 208.574 529.693 208.835 530.662 208.835C531.759 208.835 532.598 208.509 533.244 207.856C533.889 207.203 534.212 206.158 534.212 204.787V195.973H534.147Z" id="CL2"/>
<path d="M557 212.296H552.158L548.672 207.334L545.122 212.296H540.345L546.219 203.938L540.538 195.973H545.315L548.608 200.543L551.835 195.973H556.613L550.932 203.938L557 212.296Z" id="CL2"/>
<path d="M393.224 203.024C394.903 202.893 396.258 204.003 396.387 205.701C396.516 207.464 395.29 208.9 393.611 209.031C391.998 209.162 390.577 207.921 390.448 206.289C390.319 204.526 391.481 203.22 393.224 203.024Z" id="CL3"/>
<path d="M372.825 216.931C372.825 215.234 374.116 213.928 375.665 213.928C377.214 213.928 378.699 215.364 378.699 216.996C378.699 218.563 377.408 219.935 375.923 220C374.051 220 372.825 218.825 372.825 216.931Z" id="CL1"/>
<path d="M377.408 197.865C377.15 197.995 377.021 197.799 376.956 197.604C374.568 193.098 375.278 187.418 379.474 184.023C380.571 183.109 382.637 182.913 383.541 183.827C383.928 184.153 383.993 184.545 384.057 185.002C384.186 185.982 384.38 186.961 385.026 187.744C385.736 188.593 386.639 188.92 387.672 188.854C388.576 188.854 389.48 188.724 390.061 189.768C390.384 190.356 390.254 192.641 389.738 193.098C389.48 193.294 389.286 193.164 389.092 193.098C387.608 192.511 386.058 192.511 384.509 192.772C383.993 192.837 383.734 192.707 383.734 192.119C383.67 191.14 383.476 190.226 382.96 189.377C381.991 187.614 380.184 187.549 379.022 189.181C378.054 190.487 377.795 192.054 377.537 193.621C377.279 194.992 377.343 196.428 377.408 197.865Z" id="CL5"/>
<path d="M379.022 198.845C378.893 198.65 378.958 198.454 379.151 198.323C382.831 194.928 388.318 194.275 392.579 197.605C393.676 198.519 394.386 200.412 393.805 201.522C393.547 201.979 393.224 202.175 392.837 202.306C391.933 202.698 391.094 203.089 390.513 203.938C389.932 204.787 389.803 205.766 390.061 206.811C390.255 207.66 390.578 208.574 389.738 209.358C389.286 209.815 387.092 210.206 386.511 209.815C386.252 209.619 386.317 209.423 386.382 209.162C386.575 207.529 386.188 206.028 385.607 204.591C385.413 204.069 385.478 203.808 385.994 203.677C386.898 203.416 387.737 202.959 388.383 202.306C389.803 200.935 389.48 199.172 387.608 198.388C386.123 197.735 384.574 197.866 383.089 197.997C381.669 198.062 380.313 198.454 379.022 198.845Z" id="CL3"/>
<path d="M378.183 200.543C378.377 200.347 378.506 200.412 378.699 200.543C382.96 203.154 385.155 208.312 383.218 213.34C382.702 214.646 381.023 215.952 379.797 215.625C379.28 215.495 379.022 215.233 378.764 214.907C378.183 214.123 377.537 213.405 376.569 213.079C375.536 212.752 374.632 212.948 373.729 213.47C372.954 213.928 372.179 214.515 371.211 213.928C370.63 213.601 369.662 211.577 369.855 210.924C369.984 210.663 370.243 210.663 370.501 210.663C372.115 210.402 373.406 209.618 374.632 208.574C375.02 208.247 375.342 208.247 375.665 208.704C376.182 209.488 376.827 210.141 377.666 210.598C379.345 211.577 380.959 210.728 381.152 208.769C381.346 207.137 380.765 205.701 380.249 204.264C379.668 202.958 378.958 201.718 378.183 200.543Z" id="CL1"/>
<path d="M376.117 200.934C375.859 202.24 375.278 203.481 374.503 204.591C372.179 208.117 368.823 209.553 364.691 209.161C363.206 209.031 361.98 207.79 361.851 206.55C361.786 206.027 361.915 205.635 362.238 205.244C362.69 204.656 363.077 204.134 363.271 203.415C363.658 201.979 363.142 200.804 362.109 199.759C360.689 198.323 360.882 197.017 362.561 195.972C362.754 195.842 363.013 195.711 363.271 195.58C363.658 195.385 363.981 195.385 364.11 195.842C364.691 197.343 365.853 198.453 367.144 199.367C367.596 199.759 367.596 200.02 367.209 200.477C366.434 201.326 365.982 202.371 365.918 203.546C365.788 204.982 366.628 205.897 368.048 205.897C368.952 205.897 369.791 205.57 370.565 205.178C372.567 204.134 374.116 202.632 375.601 201.065C375.794 201 375.859 200.869 376.117 200.934Z" id="CL0"/>
<path d="M365.53 187.222C365.659 187.222 365.982 187.288 366.305 187.353C368.693 187.81 370.178 186.961 370.953 184.676C371.469 183.174 372.567 182.717 373.987 183.501C374.051 183.501 374.051 183.566 374.116 183.566C375.601 184.415 375.601 184.545 374.697 185.851C373.922 186.896 373.535 188.071 373.341 189.312C373.212 190.03 372.954 190.16 372.308 189.899C371.275 189.507 370.178 189.507 369.081 189.899C367.854 190.291 367.338 191.401 367.725 192.642C368.241 194.274 369.662 194.992 370.888 195.841C372.115 196.69 373.535 197.147 374.89 197.734C375.084 197.8 375.407 197.8 375.342 198.126C375.278 198.322 375.02 198.322 374.761 198.322C371.856 198.453 369.081 197.996 366.821 196.037C364.691 194.274 363.141 192.119 363.4 189.116C363.593 188.136 364.303 187.418 365.53 187.222Z" id="CL4"/>
<path d="M360.237 205.57C358.687 205.766 357.138 204.46 357.009 202.828C356.88 201.261 358.171 199.694 359.656 199.563C361.334 199.367 362.883 200.543 363.013 202.11C363.077 203.611 362.109 205.44 360.237 205.57Z" id="CL0"/>
<path d="M387.35 182.326C388.963 182.196 390.513 183.502 390.642 185.134C390.771 186.701 389.48 188.203 387.93 188.333C386.252 188.464 384.767 187.223 384.638 185.591C384.509 183.959 385.671 182.457 387.35 182.326Z" id="CL5"/>
<path d="M370.501 183.567C370.694 185.264 369.532 186.701 367.79 186.962C366.305 187.158 364.755 185.917 364.562 184.481C364.368 182.587 365.401 181.216 367.144 181.02C368.758 180.825 370.307 182.065 370.501 183.567Z" id="CL4"/>
</svg>
